<svg xmlns="http://www.w3.org/2000/svg" xmlns:xlink="http://www.w3.org/1999/xlink"  viewBox="0 0 22 22" version="1.1">
<g id="surface5399">
<path style=" stroke:none;fill-rule:nonzero;fill:rgb(31.764706%,27.45098%,93.333333%);fill-opacity:1;" d="M 9.792969 2.933594 C 9.441406 2.933594 9.1875 3.011719 9.035156 3.167969 C 8.878906 3.324219 8.800781 3.578125 8.800781 3.933594 L 8.800781 10 C 8.800781 10.347656 8.875 10.601562 9.027344 10.761719 C 9.179688 10.921875 9.433594 11 9.789062 11 L 12.257812 11 C 12.679688 11 13.054688 10.980469 13.371094 10.9375 C 13.691406 10.894531 13.972656 10.820312 14.21875 10.71875 C 14.613281 10.546875 14.925781 10.28125 15.15625 9.917969 C 15.386719 9.558594 15.5 9.152344 15.5 8.699219 C 15.5 7.722656 14.972656 7.066406 13.910156 6.730469 C 14.71875 6.355469 15.121094 5.765625 15.121094 4.957031 C 15.121094 4.722656 15.085938 4.5 15.007812 4.289062 C 14.929688 4.078125 14.816406 3.886719 14.671875 3.710938 C 14.523438 3.539062 14.355469 3.394531 14.164062 3.28125 C 13.941406 3.144531 13.6875 3.050781 13.40625 3.003906 C 13.125 2.957031 12.789062 2.933594 12.402344 2.933594 Z M 10.433594 4.160156 L 11.761719 4.160156 C 12.355469 4.160156 12.796875 4.226562 13.085938 4.359375 C 13.375 4.496094 13.523438 4.765625 13.523438 5.171875 C 13.523438 5.363281 13.476562 5.535156 13.382812 5.691406 C 13.265625 5.90625 13.097656 6.054688 12.875 6.128906 C 12.652344 6.207031 12.339844 6.246094 11.929688 6.246094 L 10.433594 6.246094 Z M 10.433594 7.417969 L 12.132812 7.417969 C 12.703125 7.417969 13.132812 7.507812 13.417969 7.691406 C 13.703125 7.875 13.847656 8.171875 13.847656 8.578125 C 13.847656 9.375 13.292969 9.773438 12.1875 9.773438 L 10.433594 9.773438 Z M 5.785156 8.800781 C 5.570312 8.800781 5.390625 8.839844 5.242188 8.925781 C 5.09375 9.007812 4.972656 9.117188 4.882812 9.25 C 4.792969 9.386719 4.710938 9.554688 4.628906 9.757812 C 4.550781 9.964844 4.480469 10.136719 4.425781 10.285156 L 2.429688 15.351562 C 2.347656 15.550781 2.289062 15.710938 2.253906 15.824219 C 2.21875 15.9375 2.199219 16.046875 2.199219 16.152344 C 2.199219 16.335938 2.277344 16.503906 2.429688 16.648438 C 2.582031 16.792969 2.757812 16.867188 2.953125 16.867188 C 3.191406 16.867188 3.359375 16.796875 3.460938 16.660156 C 3.5625 16.523438 3.6875 16.261719 3.832031 15.871094 L 4.207031 14.871094 L 7.378906 14.871094 L 7.75 15.851562 C 7.800781 15.972656 7.859375 16.109375 7.929688 16.269531 C 7.996094 16.425781 8.0625 16.542969 8.121094 16.617188 C 8.183594 16.695312 8.257812 16.753906 8.347656 16.800781 C 8.433594 16.84375 8.542969 16.867188 8.664062 16.867188 C 8.878906 16.867188 9.058594 16.789062 9.210938 16.640625 C 9.363281 16.488281 9.4375 16.324219 9.4375 16.144531 C 9.4375 15.96875 9.359375 15.691406 9.199219 15.308594 L 7.160156 10.273438 C 7.0625 10.023438 6.984375 9.820312 6.921875 9.671875 C 6.859375 9.519531 6.785156 9.378906 6.695312 9.246094 C 6.605469 9.117188 6.484375 9.007812 6.335938 8.925781 C 6.191406 8.84375 6.007812 8.800781 5.785156 8.800781 Z M 5.777344 10.464844 L 6.953125 13.683594 L 4.621094 13.683594 Z M 16.566406 11.734375 C 16.046875 11.734375 15.558594 11.824219 15.101562 12.007812 C 14.644531 12.195312 14.246094 12.460938 13.90625 12.816406 C 13.5625 13.167969 13.300781 13.59375 13.121094 14.089844 C 12.9375 14.585938 12.84375 15.148438 12.84375 15.777344 C 12.84375 16.164062 12.882812 16.53125 12.953125 16.875 C 13.027344 17.21875 13.136719 17.539062 13.28125 17.84375 C 13.425781 18.148438 13.601562 18.421875 13.808594 18.664062 C 14.039062 18.933594 14.292969 19.152344 14.566406 19.320312 C 14.839844 19.484375 15.148438 19.605469 15.484375 19.683594 C 15.820312 19.761719 16.195312 19.800781 16.605469 19.800781 C 17.152344 19.800781 17.625 19.714844 18.035156 19.539062 C 18.441406 19.367188 18.777344 19.140625 19.039062 18.859375 C 19.300781 18.582031 19.496094 18.296875 19.617188 18.007812 C 19.738281 17.71875 19.800781 17.453125 19.800781 17.203125 C 19.800781 17.007812 19.734375 16.84375 19.597656 16.710938 C 19.464844 16.582031 19.304688 16.515625 19.117188 16.515625 C 18.894531 16.515625 18.734375 16.578125 18.636719 16.710938 C 18.535156 16.839844 18.453125 17.007812 18.386719 17.214844 C 18.226562 17.648438 17.988281 17.980469 17.675781 18.203125 C 17.363281 18.429688 16.976562 18.542969 16.523438 18.542969 C 16.105469 18.542969 15.738281 18.445312 15.425781 18.246094 C 15.113281 18.046875 14.875 17.746094 14.703125 17.34375 C 14.535156 16.941406 14.449219 16.4375 14.449219 15.828125 C 14.449219 14.921875 14.640625 14.222656 15.023438 13.726562 C 15.410156 13.234375 15.925781 12.988281 16.574219 12.988281 C 16.984375 12.988281 17.328125 13.085938 17.605469 13.277344 C 17.882812 13.46875 18.125 13.757812 18.332031 14.140625 C 18.457031 14.375 18.570312 14.542969 18.667969 14.636719 C 18.769531 14.734375 18.921875 14.78125 19.125 14.78125 C 19.304688 14.78125 19.460938 14.710938 19.589844 14.574219 C 19.714844 14.433594 19.777344 14.277344 19.777344 14.09375 C 19.777344 13.765625 19.648438 13.414062 19.382812 13.042969 C 19.121094 12.671875 18.746094 12.363281 18.25 12.113281 C 17.757812 11.859375 17.195312 11.734375 16.566406 11.734375 Z M 16.566406 11.734375 "/>
</g>
</svg>
